<svg xmlns="http://www.w3.org/2000/svg" width="120" height="36" viewBox="0 0 120 36">
  <g id="Artboard" fill="none" fill-rule="evenodd">
    <path id="Ant" fill="#DB4D4D" d="M12.2988691,22.5983264 L6.16801292,22.5983264 L4.64458805,28.5481172 L0,28.5481172 L7.54281099,2 L11.2213247,2 L18.8012924,28.5481172 L13.8966074,28.5481172 L12.2988691,22.5983264 Z M7.17124394,18.6820084 L11.4814216,18.6820084 L9.99515347,12.5439331 L9.4006462,8.40167364 L9.25201939,8.40167364 L8.62035541,12.58159 L7.17124394,18.6820084 Z M29.53958,28.5481172 L29.53958,17.1004184 C29.53958,15.7196584 29.3785692,14.7531408 29.0565428,14.2008368 C28.7345164,13.6485328 28.1895569,13.3723849 27.4216478,13.3723849 C26.7775951,13.3723849 26.2202501,13.5732197 25.7495961,13.9748954 C25.2789422,14.376571 24.9445352,14.8786581 24.7463651,15.4811715 L24.7463651,28.5481172 L20.3247173,28.5481172 L20.3247173,9.71966527 L23.8546042,9.71966527 L24.3747981,11.9037657 L24.4862682,11.9037657 C24.9321509,11.1757286 25.5390376,10.5543959 26.3069467,10.039749 C27.0748558,9.52510203 28.0780767,9.26778243 29.3166397,9.26778243 C30.0597775,9.26778243 30.7223988,9.38075201 31.3045234,9.60669456 C31.886648,9.83263711 32.3758731,10.2029263 32.7722132,10.7175732 C33.1685534,11.2322201 33.4658041,11.9225898 33.6639742,12.7887029 C33.8621442,13.654816 33.9612278,14.7280271 33.9612278,16.0083682 L33.9612278,28.5481172 L29.53958,28.5481172 Z M35.5589661,9.71966527 L37.6025848,9.71966527 L37.6025848,6.17991632 L42.0242326,4.78661088 L42.0242326,9.71966527 L45.628433,9.71966527 L45.628433,13.7112971 L42.0242326,13.7112971 L42.0242326,21.9205021 C42.0242326,23.0000054 42.1295089,23.7656881 42.3400646,24.2175732 C42.5506203,24.6694583 42.9283764,24.8953975 43.4733441,24.8953975 C43.844913,24.8953975 44.17932,24.857741 44.4765751,24.7824268 C44.7738302,24.7071126 45.0958518,24.594143 45.4426494,24.4435146 L46,28.0209205 C45.4550323,28.2970725 44.8233746,28.5292878 44.1050081,28.7175732 C43.3866415,28.9058587 42.6311294,29 41.8384491,29 C40.4264873,29 39.3675318,28.5857782 38.6615509,27.7573222 C37.95557,26.9288662 37.6025848,25.5355746 37.6025848,23.5774059 L37.6025848,13.7112971 L35.5589661,13.7112971 L35.5589661,9.71966527 Z"/>
    <path id="Sport" fill="#DAE3EE" d="M58.0475196,20.8643326 C58.0475196,20.0707473 57.812709,19.39497 57.3430809,18.8369803 C56.8734528,18.2789906 56.2864265,17.7520083 55.5819843,17.2560175 C54.8775422,16.7600267 54.1113183,16.2516437 53.2832898,15.7308534 C52.4552613,15.210063 51.6890375,14.6024834 50.9845953,13.9080963 C50.2801531,13.2137091 49.6931268,12.3953366 49.2234987,11.452954 C48.7538706,10.5105715 48.5190601,9.35741018 48.5190601,7.99343545 C48.5190601,6.72865888 48.710616,5.65609485 49.0937337,4.77571116 C49.4768513,3.89532747 50.0020854,3.17615159 50.6694517,2.61816193 C51.336818,2.06017226 52.1277587,1.65098598 53.0422977,1.39059081 C53.9568366,1.13019563 54.9331541,1 55.9712794,1 C57.2318601,1 58.4059128,1.12399584 59.4934726,1.37199125 C60.5810324,1.61998665 61.4831992,1.95477543 62.2,2.37636761 L60.754047,6.50547046 C60.3338534,6.20787597 59.7097517,5.93508512 58.8817232,5.68708972 C58.0536947,5.43909431 57.1577072,5.31509847 56.1937337,5.31509847 C55.2297602,5.31509847 54.4882532,5.51349182 53.9691906,5.91028446 C53.450128,6.30707711 53.1906005,6.88985757 53.1906005,7.65864333 C53.1906005,8.35303046 53.4254111,8.96680988 53.8950392,9.5 C54.3646673,10.0331901 54.9516936,10.5477729 55.6561358,11.0437637 C56.3605779,11.5397545 57.1268018,12.0543372 57.9548303,12.5875274 C58.7828588,13.1207175 59.5490826,13.7406967 60.2535248,14.4474836 C60.957967,15.1542705 61.5449933,15.9850426 62.0146214,16.9398249 C62.4842495,17.8946073 62.7190601,19.0291692 62.7190601,20.3435449 C62.7190601,21.6579205 62.5275041,22.7986823 62.1443864,23.7658643 C61.7612688,24.7330464 61.217497,25.5328196 60.5130548,26.1652079 C59.8086127,26.7975962 58.9620589,27.2749802 57.9733681,27.5973742 C56.9846774,27.9197682 55.8847754,28.0809628 54.6736292,28.0809628 C53.1411586,28.0809628 51.8002668,27.9321678 50.6509138,27.6345733 C49.5015608,27.3369788 48.6179317,27.00219 48,26.6301969 L49.5201044,22.4266958 C50.0144498,22.7242903 50.6941645,23.0218804 51.5592689,23.3194748 C52.4243733,23.6170693 53.351257,23.7658643 54.3399478,23.7658643 C56.8116747,23.7658643 58.0475196,22.7986968 58.0475196,20.8643326 Z M65.1660574,8.96061269 L68.4657963,8.96061269 L68.910705,11.0809628 L69.0219321,11.0809628 C69.5904293,10.1881793 70.2268894,9.53720117 70.9313316,9.12800875 C71.6357738,8.71881633 72.5070444,8.51422319 73.5451697,8.51422319 C75.4236822,8.51422319 76.8387246,9.22719929 77.7903394,10.6531729 C78.7419543,12.0791464 79.2177546,14.4536668 79.2177546,17.7768053 C79.2177546,21.0999437 78.624549,23.6480582 77.4381201,25.4212254 C76.2516912,27.1943925 74.5338668,28.0809628 72.2845953,28.0809628 C71.6913808,28.0809628 71.1846844,28.0313645 70.7644909,27.9321663 C70.3442973,27.8329681 69.9488269,27.6717735 69.5780679,27.4485777 L69.5780679,35 L65.1660574,35 L65.1660574,8.96061269 Z M69.5780679,23.3938731 C69.8252406,23.6418685 70.1033057,23.8278623 70.4122715,23.95186 C70.7212374,24.0758577 71.122887,24.1378556 71.6172324,24.1378556 C72.6059231,24.1378556 73.3597885,23.648072 73.8788512,22.6684902 C74.3979138,21.6889083 74.6574413,20.0211642 74.6574413,17.6652079 C74.6574413,15.9044405 74.4597061,14.5962844 74.0642298,13.7407002 C73.6687535,12.8851161 73.0137557,12.4573304 72.0992167,12.4573304 C70.8633533,12.4573304 70.0229787,13.1889059 69.5780679,14.6520788 L69.5780679,23.3938731 Z M81.0715405,18.2603939 C81.0715405,14.962055 81.7141798,12.5069373 82.9994778,10.8949672 C84.2847758,9.28299705 86.0767509,8.47702407 88.3754569,8.47702407 C90.8471838,8.47702407 92.6885927,9.29539663 93.8997389,10.9321663 C95.1108851,12.568936 95.7164491,15.0116541 95.7164491,18.2603939 C95.7164491,21.5835323 95.0738097,24.0448498 93.7885117,25.6444201 C92.5032138,27.2439905 90.6988802,28.0437637 88.3754569,28.0437637 C83.5061549,28.0437637 81.0715405,24.782673 81.0715405,18.2603939 Z M85.6318538,18.2603939 C85.6318538,20.1203594 85.8419474,21.5587112 86.262141,22.5754923 C86.6823346,23.5922735 87.3867662,24.1006565 88.3754569,24.1006565 C89.3147131,24.1006565 90.0129655,23.6604712 90.470235,22.7800875 C90.9275045,21.8997038 91.1561358,20.3931544 91.1561358,18.2603939 C91.1561358,16.3508293 90.9460421,14.9000779 90.5258486,13.9080963 C90.105655,12.9161147 89.3888649,12.4201313 88.3754569,12.4201313 C87.5103525,12.4201313 86.836817,12.8603165 86.3548303,13.7407002 C85.8728435,14.6210839 85.6318538,16.1276334 85.6318538,18.2603939 Z M106.987467,13.3501094 C106.394253,13.1269135 105.850481,13.0153173 105.356136,13.0153173 C104.68877,13.0153173 104.114102,13.2013111 103.632115,13.5733042 C103.150128,13.9452973 102.822629,14.4660798 102.649608,15.1356674 L102.649608,27.5601751 L98.2375979,27.5601751 L98.2375979,8.96061269 L101.611488,8.96061269 L102.130548,11.1925602 L102.278851,11.1925602 C102.600176,10.3741753 103.063618,9.73559675 103.669191,9.27680525 C104.274764,8.81801375 104.973016,8.58862144 105.763969,8.58862144 C106.357183,8.58862144 106.93803,8.71261729 107.506527,8.96061269 L106.987467,13.3501094 Z M108.581723,8.96061269 L110.620888,8.96061269 L110.620888,5.46389497 L115.032898,4.08752735 L115.032898,8.96061269 L118.629243,8.96061269 L118.629243,12.9037199 L115.032898,12.9037199 L115.032898,21.0131291 C115.032898,22.0795093 115.137945,22.835884 115.348042,23.2822757 C115.558139,23.7286674 115.935071,23.95186 116.478851,23.95186 C116.84961,23.95186 117.183288,23.9146612 117.479896,23.8402626 C117.776503,23.765864 118.097822,23.6542677 118.443864,23.5054705 L119,27.0393873 C118.45622,27.3121823 117.825939,27.5415746 117.109138,27.7275711 C116.392338,27.9135677 115.638472,28.0065646 114.84752,28.0065646 C113.438635,28.0065646 112.381988,27.5973783 111.677546,26.7789934 C110.973104,25.9606086 110.620888,24.5842547 110.620888,22.6498906 L110.620888,12.9037199 L108.581723,12.9037199 L108.581723,8.96061269 Z"/>
  </g>
</svg>
